<svg width="627" height="216" viewBox="0 0 627 216" fill="none" xmlns="http://www.w3.org/2000/svg">
<path d="M124.153 24.9931C110.456 24.9931 99.3437 36.1992 99.3437 49.9827V120.658C99.3437 123.031 97.4201 124.955 95.0472 124.955H78.7957C76.4228 124.955 74.4992 123.031 74.4992 120.658V49.9827C74.4992 36.1992 63.3525 24.9931 49.6547 24.9931C35.957 24.9931 24.8099 36.1992 24.8099 49.9827L24.8099 120.658C24.8099 123.031 22.8863 124.955 20.5134 124.955H4.29669C1.9238 124.955 0.000183105 123.031 0.000183105 120.658L0.000183105 49.9827C0.000183105 22.4228 22.2592 0 49.6547 0C62.8053 0 74.6256 5.26613 83.4893 13.7015C85.381 15.5017 88.4272 15.5018 90.3195 13.7021C99.1892 5.26639 111.033 0 124.153 0C151.549 0 173.843 22.4228 173.843 49.9827L173.843 211.703C173.843 214.076 171.919 216 169.546 216H153.295C150.922 216 148.998 214.076 148.998 211.703L148.998 49.9827C148.998 36.1992 137.851 24.9931 124.153 24.9931Z" fill="white"/>
<path d="M227.28 65.1486C236.315 65.1486 244.262 66.9992 251.121 70.7005C258.088 74.4018 263.476 79.5727 267.287 86.2133C271.206 92.8539 273.165 100.583 273.165 109.401C273.165 118.219 271.206 125.948 267.287 132.588C263.476 139.229 258.088 144.454 251.121 148.265C244.262 151.966 236.315 153.816 227.28 153.816C218.136 153.816 210.08 151.966 203.113 148.265C196.145 144.454 190.702 139.229 186.783 132.588C182.973 125.948 181.068 118.219 181.068 109.401C181.068 100.583 182.973 92.8539 186.783 86.2133C190.702 79.5727 196.145 74.4018 203.113 70.7005C210.08 66.9992 218.136 65.1486 227.28 65.1486ZM227.28 82.2943C222.381 82.2943 218.027 83.4918 214.217 85.8867C210.515 88.1728 207.63 91.3842 205.562 95.521C203.494 99.5489 202.459 104.23 202.459 109.564C202.459 115.007 203.494 119.797 205.562 123.934C207.63 128.071 210.515 131.282 214.217 133.568C218.027 135.854 222.381 136.997 227.28 136.997C232.07 136.997 236.315 135.854 240.017 133.568C243.718 131.282 246.603 128.071 248.671 123.934C250.74 119.797 251.774 115.007 251.774 109.564C251.774 104.23 250.74 99.5489 248.671 95.521C246.603 91.3842 243.718 88.1728 240.017 85.8867C236.315 83.4918 232.07 82.2943 227.28 82.2943ZM262.123 65.965H284.33L307.191 133.405L329.562 65.965H350.954L317.642 153H295.761L262.123 65.965ZM406.074 102.869C405.856 98.297 404.822 94.4324 402.971 91.2754C401.121 88.0095 398.508 85.5057 395.133 83.7639C391.867 81.9133 388.112 80.9879 383.866 80.9879C378.967 80.9879 374.722 82.131 371.129 84.4171C367.537 86.7032 364.706 89.9146 362.638 94.0514C360.679 98.1881 359.699 102.978 359.699 108.421C359.699 114.409 360.787 119.579 362.965 123.934C365.251 128.288 368.353 131.663 372.272 134.058C376.191 136.344 380.709 137.487 385.826 137.487C395.079 137.487 402.971 134.167 409.503 127.526L420.77 138.794C416.416 143.583 411.136 147.285 404.931 149.897C398.726 152.51 391.813 153.816 384.193 153.816C375.048 153.816 367.101 151.966 360.352 148.265C353.711 144.454 348.486 139.283 344.676 132.752C340.975 126.111 339.124 118.382 339.124 109.564C339.124 100.746 340.975 93.0172 344.676 86.3766C348.486 79.736 353.711 74.5651 360.352 70.8638C367.101 67.1625 374.831 65.2574 383.54 65.1486C393.881 65.1486 402.209 67.2714 408.523 71.517C414.946 75.7626 419.518 81.75 422.24 89.4792C424.961 97.0995 425.941 106.189 425.179 116.749H356.596V102.869H406.074Z" fill="white"/>
<path d="M498.974 37.6951H521.345L570.822 152H547.472L509.424 59.7397L471.54 152H448.679L498.974 37.6951ZM474.97 109.217H543.063V127.016H474.97V109.217ZM571.814 37.6951H593.695V152H571.814V37.6951Z" fill="url(#paint0_linear_190_382)"/>
<defs>
<linearGradient id="paint0_linear_190_382" x1="528.343" y1="265.59" x2="657.793" y2="56.8427" gradientUnits="userSpaceOnUse">
<stop stop-color="#3A0A5D"/>
<stop offset="0.379165" stop-color="#551F7E"/>
<stop offset="0.896079" stop-color="#225C9E"/>
</linearGradient>
</defs>
</svg>
